<svg width="423" height="86" viewBox="0 0 423 86" fill="none" xmlns="http://www.w3.org/2000/svg">
<path d="M350.13 59.5L340.357 47.8121H345.383C346.861 47.8121 348.169 46.9821 348.792 45.644C349.415 44.3093 349.21 42.7787 348.254 41.6515L335.435 26.5628H340.175C341.668 26.5628 343.014 25.6747 343.598 24.3034C344.175 22.9538 343.903 21.3833 342.902 20.3059L324.81 0.803073C323.821 -0.267691 321.975 -0.267691 320.984 0.803073L302.891 20.3059C301.89 21.3833 301.62 22.9538 302.195 24.3034C302.78 25.6747 304.127 26.5628 305.62 26.5628H310.359L297.539 41.6548C296.586 42.7804 296.381 44.3093 297.003 45.6457C297.626 46.9821 298.932 47.8121 300.412 47.8121H305.437L294.897 59.5C293.913 60.6272 291.123 65.5055 291.746 66.8618C292.361 68.1981 293.715 69.0614 295.193 69.0614H317.647V73.1203L312.678 81.1552C311.805 82.9216 313.075 85 315.025 85H330.769C332.72 85 333.99 82.9216 333.117 81.1552L328.148 73.1203V69.0614H350.602C373.71 69.4319 353.897 60.5 355.897 60C357.897 59.5 358.397 59.5 350.13 59.5Z" fill="url(#paint0_linear_272_407)"/>
<path d="M376.397 33.881H365.477V69.001H354.117V33.881H349.077V24.681H354.117V22.441C354.117 17.001 355.664 13.001 358.757 10.441C365.936 4.49999 377.897 6.99991 382.897 16.2809L374.897 19.4999C370.897 13.9999 368.144 16.681 367.077 17.641C366.01 18.601 365.477 20.3344 365.477 22.841V24.681H373.237L376.397 33.881Z" fill="url(#paint1_linear_272_407)"/>
<path d="M422.897 15L393.055 85.161H0.396973L10.897 82.201L385.397 75L390.735 63.081L374.897 19.4999L382.897 16.2809L396.975 50.841L411.397 15L422.897 15Z" fill="url(#paint2_linear_272_407)"/>
<path d="M41.6 29.9599C40.32 27.6133 38.56 25.8266 36.32 24.5999C34.08 23.3733 31.4667 22.7599 28.48 22.7599C25.1733 22.7599 22.24 23.5066 19.68 24.9999C17.12 26.4933 15.12 28.6266 13.68 31.3999C12.24 34.1733 11.52 37.3733 11.52 40.9999C11.52 44.7333 12.24 47.9866 13.68 50.7599C15.1733 53.5333 17.2267 55.6666 19.84 57.1599C22.4533 58.6533 25.4933 59.3999 28.96 59.3999C33.2267 59.3999 36.72 58.2799 39.44 56.0399C42.16 53.7466 43.9467 50.5733 44.8 46.5199H25.6V37.9599H55.84V47.7199C55.0933 51.6133 53.4933 55.2133 51.04 58.5199C48.5867 61.8266 45.4133 64.4933 41.52 66.5199C37.68 68.4933 33.36 69.4799 28.56 69.4799C23.1733 69.4799 18.2933 68.2799 13.92 65.8799C9.6 63.4266 6.18667 60.0399 3.68 55.7199C1.22667 51.3999 0 46.4933 0 40.9999C0 35.5066 1.22667 30.5999 3.68 26.2799C6.18667 21.9066 9.6 18.5199 13.92 16.1199C18.2933 13.6666 23.1467 12.4399 28.48 12.4399C34.7733 12.4399 40.24 13.9866 44.88 17.0799C49.52 20.1199 52.72 24.4133 54.48 29.9599H41.6Z" fill="url(#paint3_linear_272_407)"/>
<path d="M68.1263 31.5599C69.5663 29.2133 71.4329 27.3733 73.7263 26.0399C76.0729 24.7066 78.7396 24.0399 81.7263 24.0399V35.7999H78.7663C75.2463 35.7999 72.5796 36.6266 70.7663 38.2799C69.0062 39.9333 68.1263 42.8133 68.1263 46.9199V68.9999H56.9263V24.6799H68.1263V31.5599Z" fill="url(#paint4_linear_272_407)"/>
<path d="M123.27 45.8799C123.27 47.4799 123.163 48.9199 122.95 50.1999H90.55C90.8167 53.3999 91.9367 55.9066 93.91 57.7199C95.8833 59.5333 98.31 60.4399 101.19 60.4399C105.35 60.4399 108.31 58.6533 110.07 55.0799H122.15C120.87 59.3466 118.417 62.8666 114.79 65.6399C111.163 68.3599 106.71 69.7199 101.43 69.7199C97.1633 69.7199 93.3233 68.7866 89.91 66.9199C86.55 64.9999 83.91 62.3066 81.99 58.8399C80.1233 55.3733 79.19 51.3733 79.19 46.8399C79.19 42.2533 80.1233 38.2266 81.99 34.7599C83.8567 31.2933 86.47 28.6266 89.83 26.7599C93.19 24.8933 97.0567 23.9599 101.43 23.9599C105.643 23.9599 109.403 24.8666 112.71 26.6799C116.07 28.4933 118.657 31.0799 120.47 34.4399C122.337 37.7466 123.27 41.5599 123.27 45.8799ZM111.67 42.6799C111.617 39.7999 110.577 37.5066 108.55 35.7999C106.523 34.0399 104.043 33.1599 101.11 33.1599C98.3367 33.1599 95.99 34.0133 94.07 35.7199C92.2033 37.3733 91.0567 39.6933 90.63 42.6799H111.67Z" fill="#508458"/>
<path d="M134.245 45.8799C134.245 47.4799 134.138 48.9199 133.925 50.1999H101.525C101.792 53.3999 102.912 55.9066 104.885 57.7199C106.858 59.5333 109.285 60.4399 112.165 60.4399C116.325 60.4399 119.285 58.6533 121.045 55.0799H133.125C131.845 59.3466 129.392 62.8666 125.765 65.6399C122.138 68.3599 117.685 69.7199 112.405 69.7199C108.138 69.7199 104.298 68.7866 100.885 66.9199C97.525 64.9999 94.885 62.3066 92.965 58.8399C91.0983 55.3733 90.165 51.3733 90.165 46.8399C90.165 42.2533 91.0983 38.2266 92.965 34.7599C94.8317 31.2933 97.445 28.6266 100.805 26.7599C104.165 24.8933 108.032 23.9599 112.405 23.9599C116.618 23.9599 120.378 24.8666 123.685 26.6799C127.045 28.4933 129.632 31.0799 131.445 34.4399C133.312 37.7466 134.245 41.5599 134.245 45.8799ZM122.645 42.6799C122.592 39.7999 121.552 37.5066 119.525 35.7999C117.498 34.0399 115.018 33.1599 112.085 33.1599C109.312 33.1599 106.965 34.0133 105.045 35.7199C103.178 37.3733 102.032 39.6933 101.605 42.6799H122.645Z" fill="url(#paint5_linear_272_407)"/>
<path d="M134.245 45.8799C134.245 47.4799 134.138 48.9199 133.925 50.1999H101.525C101.792 53.3999 102.912 55.9066 104.885 57.7199C106.858 59.5333 109.285 60.4399 112.165 60.4399C116.325 60.4399 119.285 58.6533 121.045 55.0799H133.125C131.845 59.3466 129.392 62.8666 125.765 65.6399C122.138 68.3599 117.685 69.7199 112.405 69.7199C108.138 69.7199 104.298 68.7866 100.885 66.9199C97.525 64.9999 94.885 62.3066 92.965 58.8399C91.0983 55.3733 90.165 51.3733 90.165 46.8399C90.165 42.2533 91.0983 38.2266 92.965 34.7599C94.8317 31.2933 97.445 28.6266 100.805 26.7599C104.165 24.8933 108.032 23.9599 112.405 23.9599C116.618 23.9599 120.378 24.8666 123.685 26.6799C127.045 28.4933 129.632 31.0799 131.445 34.4399C133.312 37.7466 134.245 41.5599 134.245 45.8799ZM122.645 42.6799C122.592 39.7999 121.552 37.5066 119.525 35.7999C117.498 34.0399 115.018 33.1599 112.085 33.1599C109.312 33.1599 106.965 34.0133 105.045 35.7199C103.178 37.3733 102.032 39.6933 101.605 42.6799H122.645Z" fill="black" fill-opacity="0.2"/>
<path d="M159.78 24.0399C165.06 24.0399 169.327 25.7199 172.58 29.0799C175.833 32.3866 177.46 37.0266 177.46 42.9999V68.9999H166.26V44.5199C166.26 40.9999 165.38 38.3066 163.62 36.4399C161.86 34.5199 159.46 33.5599 156.42 33.5599C153.327 33.5599 150.873 34.5199 149.06 36.4399C147.3 38.3066 146.42 40.9999 146.42 44.5199V68.9999H135.22V24.6799H146.42V30.1999C147.913 28.2799 149.807 26.7866 152.1 25.7199C154.447 24.5999 157.007 24.0399 159.78 24.0399Z" fill="url(#paint6_linear_272_407)"/>
<path d="M219.077 58.3599H196.837L193.157 68.9999H181.397L201.477 13.0799H214.517L234.897 68.9999H222.757L219.077 58.3599ZM216.037 49.3999L207.957 26.0399L199.877 49.3999H216.037Z" fill="url(#paint7_linear_272_407)"/>
<path d="M227.352 49C228.806 45.5 229.03 38.2533 230.896 34.8399C232.763 31.3733 235.35 28.7066 238.656 26.8399C241.963 24.9199 245.75 23.9599 250.016 23.9599C255.51 23.9599 260.043 25.3466 263.616 28.1199C267.243 30.8399 267.789 28.9199 269.015 33.8799L258.816 39.6399C258.176 37.7199 257.083 36.2266 255.536 35.1599C254.043 34.0399 252.176 33.4799 249.936 33.4799C246.736 33.4799 244.203 34.6533 242.336 36.9999C240.47 39.2933 239.536 42.5733 239.536 46.8399C239.536 51.0533 240.47 54.3333 242.336 56.6799C244.203 58.9733 246.736 60.1199 249.936 60.1199C254.47 60.1199 257.43 58.0933 258.816 54.0399H270.896C269.67 58.8399 267.243 62.6533 263.616 65.4799C259.99 68.3066 255.456 69.7199 250.016 69.7199C245.75 69.7199 238.204 65.8667 234.897 64C231.59 62.08 235.397 69 234.897 68.9999C233.03 65.5333 225.897 52.5 227.352 49Z" fill="url(#paint8_linear_272_407)"/>
<path d="M284.941 33.8799V55.3199C284.941 56.8133 285.288 57.9066 285.981 58.5999C286.728 59.2399 287.955 59.5599 289.661 59.5599H294.861V68.9999H287.821C278.381 68.9999 273.661 64.4133 273.661 55.2399V33.8799H269.015L250.016 23.9599L273.661 24.6799V13.7199H284.941V24.6799H294.861V33.8799H284.941Z" fill="url(#paint9_linear_272_407)"/>
<defs>
<linearGradient id="paint0_linear_272_407" x1="343.897" y1="40.5" x2="303.897" y2="63" gradientUnits="userSpaceOnUse">
<stop stop-color="#0B650E"/>
<stop offset="1" stop-color="#687000"/>
</linearGradient>
<linearGradient id="paint1_linear_272_407" x1="386.397" y1="27.5" x2="52.397" y2="85.0002" gradientUnits="userSpaceOnUse">
<stop stop-color="#234400"/>
<stop offset="0.0928372" stop-color="#12660D"/>
<stop offset="0.487312" stop-color="#D5A706"/>
<stop offset="0.743656" stop-color="#27714D"/>
<stop offset="1" stop-color="#06351C"/>
</linearGradient>
<linearGradient id="paint2_linear_272_407" x1="386.397" y1="27.5" x2="52.397" y2="85.0002" gradientUnits="userSpaceOnUse">
<stop stop-color="#234400"/>
<stop offset="0.0928372" stop-color="#16660D"/>
<stop offset="0.743656" stop-color="#236F4E"/>
<stop offset="1" stop-color="#06351C"/>
</linearGradient>
<linearGradient id="paint3_linear_272_407" x1="292.626" y1="28" x2="-44.3039" y2="98.2975" gradientUnits="userSpaceOnUse">
<stop offset="0.0412561" stop-color="#687000"/>
<stop offset="0.227434" stop-color="#DCAA06"/>
<stop offset="0.45673" stop-color="#0A452B"/>
<stop offset="0.668269" stop-color="#0A452B"/>
<stop offset="1" stop-color="#02240B"/>
</linearGradient>
<linearGradient id="paint4_linear_272_407" x1="292.626" y1="28" x2="-44.3039" y2="98.2975" gradientUnits="userSpaceOnUse">
<stop offset="0.0412561" stop-color="#687000"/>
<stop offset="0.227434" stop-color="#DCAA06"/>
<stop offset="0.45673" stop-color="#0A452B"/>
<stop offset="0.668269" stop-color="#0A452B"/>
<stop offset="1" stop-color="#02240B"/>
</linearGradient>
<linearGradient id="paint5_linear_272_407" x1="290.637" y1="36.9431" x2="57.7885" y2="172.124" gradientUnits="userSpaceOnUse">
<stop offset="0.0412561" stop-color="#687000"/>
<stop offset="0.227434" stop-color="#DCAA06"/>
<stop offset="0.460253" stop-color="#156B53"/>
<stop offset="0.666374" stop-color="#0A452B"/>
<stop offset="1" stop-color="#02240B"/>
</linearGradient>
<linearGradient id="paint6_linear_272_407" x1="292.626" y1="28" x2="-44.3039" y2="98.2975" gradientUnits="userSpaceOnUse">
<stop offset="0.0412561" stop-color="#687000"/>
<stop offset="0.227434" stop-color="#DCAA06"/>
<stop offset="0.45673" stop-color="#0A452B"/>
<stop offset="0.668269" stop-color="#0A452B"/>
<stop offset="1" stop-color="#02240B"/>
</linearGradient>
<linearGradient id="paint7_linear_272_407" x1="292.626" y1="28" x2="-44.3039" y2="98.2975" gradientUnits="userSpaceOnUse">
<stop offset="0.0412561" stop-color="#687000"/>
<stop offset="0.227434" stop-color="#DCAA06"/>
<stop offset="0.45673" stop-color="#0A452B"/>
<stop offset="0.668269" stop-color="#0A452B"/>
<stop offset="1" stop-color="#02240B"/>
</linearGradient>
<linearGradient id="paint8_linear_272_407" x1="292.626" y1="28" x2="-44.3039" y2="98.2975" gradientUnits="userSpaceOnUse">
<stop offset="0.0412561" stop-color="#687000"/>
<stop offset="0.227434" stop-color="#DCAA06"/>
<stop offset="0.45673" stop-color="#0A452B"/>
<stop offset="0.668269" stop-color="#0A452B"/>
<stop offset="1" stop-color="#02240B"/>
</linearGradient>
<linearGradient id="paint9_linear_272_407" x1="292.626" y1="28" x2="-44.3039" y2="98.2975" gradientUnits="userSpaceOnUse">
<stop offset="0.0412561" stop-color="#687000"/>
<stop offset="0.227434" stop-color="#DCAA06"/>
<stop offset="0.45673" stop-color="#0A452B"/>
<stop offset="0.668269" stop-color="#0A452B"/>
<stop offset="1" stop-color="#02240B"/>
</linearGradient>
</defs>
</svg>
